<?xml version="1.0" encoding="UTF-8"?>
<svg width="512" height="512" viewBox="0 0 512 512" xmlns="http://www.w3.org/2000/svg">
  <!-- Background circle -->
  <circle cx="256" cy="256" r="240" fill="#478CBF" opacity="0.95"/>
  
  <!-- Grid pattern (representing placement) -->
  <g opacity="0.15" stroke="#FFFFFF" stroke-width="2" fill="none">
    <line x1="170" y1="100" x2="170" y2="412"/>
    <line x1="256" y1="100" x2="256" y2="412"/>
    <line x1="342" y1="100" x2="342" y2="412"/>
    <line x1="100" y1="170" x2="412" y2="170"/>
    <line x1="100" y1="256" x2="412" y2="256"/>
    <line x1="100" y1="342" x2="412" y2="342"/>
  </g>
  
  <!-- 3D Box/Asset icon - back face -->
  <path d="M 156 240 L 256 180 L 356 240 L 356 320 L 256 380 L 156 320 Z" 
        fill="#2D5A7B" opacity="0.8"/>
  
  <!-- 3D Box/Asset icon - top face -->
  <path d="M 156 240 L 256 180 L 356 240 L 256 300 Z" 
        fill="#5AB0E5" opacity="0.95"/>
  
  <!-- 3D Box/Asset icon - right face -->
  <path d="M 256 300 L 356 240 L 356 320 L 256 380 Z" 
        fill="#3D8AC2" opacity="0.9"/>
  
  <!-- Mouse cursor/placement indicator -->
  <g transform="translate(320, 140)">
    <!-- Cursor arrow -->
    <path d="M 0 0 L 0 40 L 12 32 L 20 48 L 28 44 L 20 28 L 32 28 Z" 
          fill="#FFFFFF" stroke="#333333" stroke-width="2"/>
  </g>
  
  <!-- Plus/Add symbol (representing asset placement) -->
  <g transform="translate(180, 120)">
    <circle cx="0" cy="0" r="24" fill="#5FCF65" opacity="0.95"/>
    <line x1="-12" y1="0" x2="12" y2="0" stroke="#FFFFFF" stroke-width="4" stroke-linecap="round"/>
    <line x1="0" y1="-12" x2="0" y2="12" stroke="#FFFFFF" stroke-width="4" stroke-linecap="round"/>
  </g>
  
  <!-- Accent dots (representing multiple assets) -->
  <circle cx="140" cy="340" r="8" fill="#5FCF65" opacity="0.7"/>
  <circle cx="170" cy="360" r="8" fill="#5FCF65" opacity="0.7"/>
  <circle cx="200" cy="350" r="8" fill="#5FCF65" opacity="0.7"/>
  
  <!-- Border ring -->
  <circle cx="256" cy="256" r="240" fill="none" stroke="#FFFFFF" stroke-width="4" opacity="0.3"/>
</svg>
